<svg width="2604" height="792" viewBox="0 0 2604 792" fill="none" xmlns="http://www.w3.org/2000/svg">
<path d="M528.365 398.143H528.391C528.391 471.458 468.984 530.865 395.669 530.866C322.354 530.866 262.949 471.431 262.948 398.143H395.653C396.326 325.432 455.469 266.675 528.365 266.675V398.143ZM463.584 339.399C455.38 339.399 448.729 346.05 448.729 354.254C448.729 362.459 455.38 369.11 463.584 369.11C471.788 369.11 478.439 362.458 478.439 354.254C478.439 346.05 471.788 339.399 463.584 339.399Z" fill="#1A1919"/>
<path d="M2261.97 533.426C2202.9 533.426 2186.35 501.966 2186.68 475.75C2186.76 469.196 2190.94 465.919 2197.57 465.919H2209.37C2216.17 465.919 2219.12 469.524 2219.77 476.324C2221.49 492.545 2232.14 502.54 2261.56 502.54C2291.7 502.54 2305.14 491.808 2305.14 475.259C2305.14 460.676 2296.87 455.351 2276.3 451.828L2240.91 445.765C2211.25 440.686 2191.59 423.973 2191.59 393.988C2191.59 360.235 2216.66 335.494 2263.03 335.494C2311.04 335.494 2336.03 360.645 2335.62 389.974C2335.53 396.446 2331.19 399.723 2324.64 399.723H2312.68C2305.88 399.723 2303.42 396.119 2302.44 389.483C2300.72 377.276 2290.72 366.134 2263.03 366.134C2235.5 366.134 2224.69 377.767 2224.69 392.842C2224.69 405.868 2232.23 411.602 2251.07 414.961L2286.46 421.188C2317.1 426.595 2338.4 441.587 2338.4 473.702C2338.4 503.687 2320.3 533.426 2261.97 533.426Z" fill="#1A1919"/>
<path d="M2033.22 434.46C2033.22 476.242 2054.11 501.966 2092.13 501.966C2116.95 501.966 2131.94 490.005 2135.46 473.784C2136.86 467.312 2139.64 463.871 2146.28 463.871H2158.57C2165.29 463.871 2169.63 467.394 2169.14 474.03C2166.84 503.769 2139.4 533.426 2091.88 533.426C2035.35 533.426 1999.47 494.511 1999.47 434.46C1999.47 374.408 2035.35 335.494 2091.88 335.494C2139.4 335.494 2166.84 365.151 2169.14 394.89C2169.63 401.526 2165.29 405.048 2158.57 405.048H2146.28C2139.64 405.048 2136.86 401.608 2135.46 395.135C2131.94 378.914 2116.95 366.953 2092.13 366.953C2054.11 366.953 2033.22 392.678 2033.22 434.46Z" fill="#1A1919"/>
<path d="M1934.16 350.569C1934.16 343.769 1937.85 340.082 1944.65 340.082H1957.1C1963.9 340.082 1967.58 343.769 1967.58 350.569V518.352C1967.58 525.152 1963.9 528.838 1957.1 528.838H1944.65C1937.85 528.838 1934.16 525.152 1934.16 518.352V350.569ZM1930.39 277.163C1930.39 270.363 1934.08 266.677 1940.88 266.677H1960.87C1967.67 266.677 1971.35 270.363 1971.35 277.163V298.136C1971.35 304.936 1967.67 308.623 1960.87 308.623H1940.88C1934.08 308.623 1930.39 304.936 1930.39 298.136V277.163Z" fill="#1A1919"/>
<path d="M1850.67 528.836C1831.09 528.836 1820.69 516.956 1820.69 500.817V294.856C1820.69 288.057 1824.37 284.37 1831.17 284.37H1843.63C1850.43 284.37 1854.11 288.057 1854.11 294.856V340.079H1894.91C1901.71 340.079 1905.4 343.766 1905.4 350.566V362.035C1905.4 368.835 1901.71 372.522 1894.91 372.522H1854.11V497.376H1891.64C1898.44 497.376 1902.12 501.063 1902.12 507.863V518.349C1902.12 525.149 1898.44 528.836 1891.64 528.836H1850.67Z" fill="#1A1919"/>
<path d="M1711.07 533.426C1652 533.426 1635.45 501.966 1635.78 475.75C1635.86 469.196 1640.04 465.919 1646.67 465.919H1658.47C1665.27 465.919 1668.22 469.524 1668.87 476.324C1670.59 492.545 1681.24 502.54 1710.66 502.54C1740.8 502.54 1754.24 491.808 1754.24 475.259C1754.24 460.676 1745.97 455.351 1725.4 451.828L1690.01 445.765C1660.35 440.686 1640.69 423.973 1640.69 393.988C1640.69 360.235 1665.76 335.494 1712.13 335.494C1760.14 335.494 1785.13 360.645 1784.72 389.974C1784.63 396.446 1780.29 399.723 1773.74 399.723H1761.78C1754.98 399.723 1752.52 396.119 1751.54 389.483C1749.82 377.276 1739.82 366.134 1712.13 366.134C1684.6 366.134 1673.79 377.767 1673.79 392.842C1673.79 405.868 1681.33 411.602 1700.17 414.961L1735.56 421.188C1766.2 426.595 1787.5 441.587 1787.5 473.702C1787.5 503.687 1769.4 533.426 1711.07 533.426Z" fill="#1A1919"/>
<path d="M1518.61 533.427C1476.17 533.427 1449.87 504.425 1449.87 457.728V350.569C1449.87 343.769 1453.56 340.083 1460.36 340.083H1472.98C1479.78 340.083 1483.46 343.769 1483.46 350.569V454.123C1483.46 486.811 1499.36 501.476 1525.25 501.476C1560.15 501.476 1570.47 475.587 1570.47 444.947V350.569C1570.47 343.769 1574.15 340.083 1580.95 340.083H1593.41C1600.21 340.083 1603.89 343.769 1603.89 350.569V518.353C1603.89 525.152 1600.21 528.839 1593.41 528.839H1580.95C1574.15 528.839 1570.47 525.152 1570.47 518.353V510.57C1559 525.644 1541.14 533.427 1518.61 533.427Z" fill="#1A1919"/>
<path d="M1330.01 533.426C1279.71 533.426 1240.06 498.116 1240.06 434.46C1240.06 370.804 1279.71 335.494 1330.01 335.494C1380.31 335.494 1419.96 370.804 1419.96 434.46C1419.96 498.116 1380.31 533.426 1330.01 533.426ZM1330.01 501.966C1359.83 501.966 1386.21 480.174 1386.21 434.46C1386.21 388.745 1359.83 366.953 1330.01 366.953C1300.19 366.953 1273.81 388.745 1273.81 434.46C1273.81 480.174 1300.19 501.966 1330.01 501.966Z" fill="#1A1919"/>
<path d="M1086.6 434.46C1086.6 476.242 1107.49 501.966 1145.5 501.966C1170.33 501.966 1185.32 490.005 1188.84 473.784C1190.24 467.312 1193.02 463.871 1199.66 463.871H1211.95C1218.66 463.871 1223.01 467.394 1222.51 474.03C1220.22 503.769 1192.78 533.426 1145.26 533.426C1088.73 533.426 1052.85 494.511 1052.85 434.46C1052.85 374.408 1088.73 335.494 1145.26 335.494C1192.78 335.494 1220.22 365.151 1222.51 394.89C1223.01 401.526 1218.66 405.048 1211.95 405.048H1199.66C1193.02 405.048 1190.24 401.608 1188.84 395.135C1185.32 378.914 1170.33 366.953 1145.5 366.953C1107.49 366.953 1086.6 392.678 1086.6 434.46Z" fill="#1A1919"/>
<path d="M924.619 440.032C917.819 440.032 914.133 436.346 914.133 429.546V418.404C914.133 411.604 917.819 407.918 924.619 407.918H1012.61C1019.41 407.918 1023.09 411.604 1023.09 418.404V429.546C1023.09 436.346 1019.41 440.032 1012.61 440.032H924.619Z" fill="#1A1919"/>
<path d="M840.643 350.569C840.643 343.769 844.33 340.082 851.129 340.082H863.582C870.382 340.082 874.068 343.769 874.068 350.569V518.352C874.068 525.152 870.382 528.838 863.582 528.838H851.129C844.33 528.838 840.643 525.152 840.643 518.352V350.569ZM836.874 277.163C836.874 270.363 840.561 266.677 847.361 266.677H867.35C874.15 266.677 877.837 270.363 877.837 277.163V298.136C877.837 304.936 874.15 308.623 867.35 308.623H847.361C840.561 308.623 836.874 304.936 836.874 298.136V277.163Z" fill="#1A1919"/>
<path d="M726.506 335.494C777.299 335.494 800.32 359.58 800.238 398.494L800.075 470.343C800.075 484.107 800.566 503.851 802.369 517.614C803.27 524.742 800.238 528.838 793.029 528.838H781.887C775.415 528.838 771.729 526.38 771.073 521.383L769.189 507.209C759.194 523.677 739.614 532.115 715.61 532.115C672.271 532.115 645.564 506.554 645.564 471.736C645.564 441.259 667.028 422.499 703.567 419.877L756.9 416.108C766.567 415.453 766.977 414.552 766.977 405.54V397.593C766.977 376.62 754.279 365.97 726.506 365.97C699.389 365.97 687.346 376.375 686.199 390.957C685.707 397.839 683.331 401.526 676.368 401.526H663.587C656.951 401.526 652.773 398.167 652.691 391.613C652.446 360.973 674.975 335.494 726.506 335.494ZM679.317 472.063C679.317 490.415 694.309 503.605 719.87 503.605C749.773 503.605 766.977 485.581 766.977 458.546V440.768C763.044 442.161 758.375 443.144 753.05 443.635L706.352 448.059C689.312 449.698 679.317 456.252 679.317 472.063Z" fill="#1A1919"/>
</svg>
